HIERARCHY
ROOT Hips
{
	OFFSET 0.000000 0.000000 0.000000
	CHANNELS 6 Xposition Yposition Zposition Xrotation Yrotation Zrotation
	JOINT Chest
	{
		OFFSET 0.000000 0.009282 11.569106
		CHANNELS 6 Xposition Yposition Zposition Xrotation Yrotation Zrotation
		JOINT Chest2
		{
			OFFSET 0.000000 -0.016863 9.269641
			CHANNELS 6 Xposition Yposition Zposition Xrotation Yrotation Zrotation
			JOINT Chest3
			{
				OFFSET 0.000000 0.000000 8.374491
				CHANNELS 6 Xposition Yposition Zposition Xrotation Yrotation Zrotation
				JOINT Chest4
				{
					OFFSET 0.000000 0.000000 8.374493
					CHANNELS 6 Xposition Yposition Zposition Xrotation Yrotation Zrotation
					JOINT Neck
					{
						OFFSET 0.000000 -0.000001 12.152554
						CHANNELS 6 Xposition Yposition Zposition Xrotation Yrotation Zrotation
						JOINT Head
						{
							OFFSET 0.000000 -0.040100 7.802319
							CHANNELS 6 Xposition Yposition Zposition Xrotation Yrotation Zrotation
							End Site
							{
								OFFSET 0.000000 -0.020946 14.853096
							}
						}
					}
					JOINT RightCollar
					{
						OFFSET -2.894404 0.000000 6.791374
						CHANNELS 6 Xposition Yposition Zposition Xrotation Yrotation Zrotation
						JOINT RightShoulder
						{
							OFFSET -13.574684 0.000000 0.000000
							CHANNELS 6 Xposition Yposition Zposition Xrotation Yrotation Zrotation
							JOINT RightElbow
							{
								OFFSET -23.923903 0.000000 0.000000
								CHANNELS 6 Xposition Yposition Zposition Xrotation Yrotation Zrotation
								JOINT RightWrist
								{
									OFFSET -19.846718 -0.012765 0.000000
									CHANNELS 6 Xposition Yposition Zposition Xrotation Yrotation Zrotation
									End Site
									{
										OFFSET -14.973145 0.000000 0.000000
									}
								}
							}
						}
					}
					JOINT LeftCollar
					{
						OFFSET 2.894404 0.000000 6.791374
						CHANNELS 6 Xposition Yposition Zposition Xrotation Yrotation Zrotation
						JOINT LeftShoulder
						{
							OFFSET 13.574684 0.000000 0.000000
							CHANNELS 6 Xposition Yposition Zposition Xrotation Yrotation Zrotation
							JOINT LeftElbow
							{
								OFFSET 23.923903 0.000000 0.000000
								CHANNELS 6 Xposition Yposition Zposition Xrotation Yrotation Zrotation
								JOINT LeftWrist
								{
									OFFSET 19.846718 -0.012765 0.000000
									CHANNELS 6 Xposition Yposition Zposition Xrotation Yrotation Zrotation
									End Site
									{
										OFFSET 14.973145 0.000000 0.000000
									}
								}
							}
						}
					}
				}
			}
		}
	}
	JOINT RightHip
	{
		OFFSET -9.469263 -0.004642 0.045487
		CHANNELS 6 Xposition Yposition Zposition Xrotation Yrotation Zrotation
		JOINT RightKnee
		{
			OFFSET 0.000000 -0.002666 -40.478676
			CHANNELS 6 Xposition Yposition Zposition Xrotation Yrotation Zrotation
			JOINT RightAnkle
			{
				OFFSET 0.000000 -0.049110 -35.224068
				CHANNELS 6 Xposition Yposition Zposition Xrotation Yrotation Zrotation
				JOINT RightToe
				{
					OFFSET 0.000000 -12.539530 -6.151390
					CHANNELS 6 Xposition Yposition Zposition Xrotation Yrotation Zrotation
					End Site
					{
						OFFSET 0.000000 -5.044995 -1.291870
					}
				}
			}
		}
	}
	JOINT LeftHip
	{
		OFFSET 9.469263 -0.004642 0.045487
		CHANNELS 6 Xposition Yposition Zposition Xrotation Yrotation Zrotation
		JOINT LeftKnee
		{
			OFFSET 0.000000 -0.002666 -40.478676
			CHANNELS 6 Xposition Yposition Zposition Xrotation Yrotation Zrotation
			JOINT LeftAnkle
			{
				OFFSET 0.000000 -0.049110 -35.224068
				CHANNELS 6 Xposition Yposition Zposition Xrotation Yrotation Zrotation
				JOINT LeftToe
				{
					OFFSET 0.000000 -12.539530 -6.151390
					CHANNELS 6 Xposition Yposition Zposition Xrotation Yrotation Zrotation
					End Site
					{
						OFFSET 0.000000 -5.044995 -1.291870
					}
				}
			}
		}
	}
}
MOTION
Frames: 4
Frame Time: 0.016667
-4.507902 16.035414 32.404099 1.135775 16.519899 -115.508088 0.000001 0.009283 11.569105 8.838904 2.145718 1.243347 0.000000 -0.016863 9.269637 4.059703 0.967819 0.388346 0.000001 -0.000000 8.374493 4.059705 0.967819 0.388350 0.000000 -0.000001 8.374490 3.045323 0.723322 0.297695 -0.000001 -0.000003 12.152549 21.608405 -1.614796 -2.034834 0.000000 -0.040107 7.802302 3.917378 -2.376968 -4.184976 -2.894404 0.000001 6.791363 -7.657685 -6.251154 -5.378808 -13.574685 -0.000002 0.000009 34.776075 -37.414755 13.588232 -23.923901 0.000003 -0.000011 61.243923 8.036356 64.587519 -19.846722 -0.012763 0.000003 -58.472109 34.965589 95.428630 2.894403 0.000000 6.791369 -6.483175 8.617812 -3.971349 13.574682 0.000000 -0.000004 23.693416 36.709965 -4.130817 23.923899 -0.000001 -0.000002 62.974877 3.036295 -68.665162 19.846718 -0.012769 0.000003 -37.609303 -36.006271 -98.401367 -9.469263 -0.004643 0.045488 -44.316962 7.502954 -11.259143 -0.000052 -0.007562 -40.477196 146.062844 6.410225 1.188578 -0.000401 -0.049271 -35.223244 19.468691 -10.972158 8.750039 -0.000004 -12.539534 -6.151399 -0.331258 -0.043091 0.116799 9.469264 -0.004641 0.045487 -89.467466 2.793959 6.197990 -0.000084 -0.005725 -40.476032 98.160637 6.652912 1.779812 -0.000163 -0.049140 -35.223743 7.606298 -7.811411 3.534606 0.000008 -12.539531 -6.151369 0.272937 0.919080 -0.113137 
-4.468507 16.069443 32.406086 1.246681 16.746514 -115.422520 -0.000001 0.009283 11.569102 8.897277 2.126782 1.142463 -0.000001 -0.016864 9.269645 4.048587 0.965452 0.385353 0.000000 0.000000 8.374493 4.048590 0.965453 0.385354 0.000001 -0.000000 8.374491 3.036982 0.721575 0.295420 0.000002 -0.000002 12.152562 21.474994 -1.491920 -1.974858 0.000000 -0.040104 7.802314 3.673788 -2.165287 -4.042520 -2.894403 -0.000000 6.791382 -7.706284 -6.245039 -5.397557 -13.574687 -0.000001 -0.000004 34.828173 -37.384709 13.647825 -23.923903 -0.000007 -0.000010 61.238547 7.934286 64.520795 -19.846716 -0.012769 0.000004 -58.491076 34.959890 95.451778 2.894405 -0.000000 6.791373 -6.856943 8.686171 -3.713681 13.574683 -0.000002 0.000007 24.127247 36.618075 -4.348857 23.923895 -0.000001 -0.000004 62.947071 3.107132 -68.656017 19.846714 -0.012769 -0.000001 -37.589208 -36.006333 -98.369791 -9.469266 -0.004642 0.045487 -44.043765 7.543155 -11.447675 -0.000047 -0.007561 -40.477188 146.073868 6.431829 1.113670 -0.000401 -0.049269 -35.223259 19.412531 -11.031945 8.779563 -0.000003 -12.539534 -6.151396 -0.239810 -0.014476 0.081248 9.469263 -0.004642 0.045487 -89.309627 3.023005 6.075779 -0.000083 -0.005732 -40.476036 98.199378 6.723712 1.806638 -0.000166 -0.049143 -35.223743 7.603542 -8.212157 3.587258 0.000006 -12.539532 -6.151361 0.274334 1.124865 -0.090876 
-4.414622 16.098175 32.397873 1.345121 16.870753 -115.309767 0.000001 0.009282 11.569103 8.885534 2.096891 1.018968 -0.000001 -0.016863 9.269638 4.028875 0.948688 0.376587 0.000001 0.000001 8.374496 4.028874 0.948687 0.376580 0.000002 0.000000 8.374496 3.022172 0.709070 0.288698 0.000000 -0.000002 12.152548 21.341884 -1.366289 -1.909688 -0.000000 -0.040097 7.802303 3.430606 -1.950309 -3.889319 -2.894406 0.000001 6.791359 -7.837669 -6.291309 -5.404198 -13.574685 0.000001 0.000000 34.895191 -37.279429 13.617538 -23.923895 -0.000006 -0.000008 61.234347 7.855045 64.516280 -19.846724 -0.012762 0.000001 -58.484164 34.946673 95.449920 2.894403 -0.000000 6.791359 -7.207222 8.753078 -3.435896 13.574685 -0.000001 -0.000005 24.434641 36.528856 -4.477552 23.923904 -0.000001 -0.000004 62.989753 3.176695 -68.635109 19.846710 -0.012769 0.000001 -37.525739 -35.985938 -98.276471 -9.469264 -0.004643 0.045484 -43.857649 7.570715 -11.688110 -0.000049 -0.007563 -40.477184 146.084796 6.465754 1.029222 -0.000406 -0.049272 -35.223263 19.379844 -11.117182 8.837146 -0.000003 -12.539531 -6.151399 -0.154328 0.019532 0.033536 9.469262 -0.004643 0.045486 -89.291486 3.289018 5.991385 -0.000086 -0.005743 -40.476032 98.306011 6.736902 1.842821 -0.000171 -0.049143 -35.223736 7.584103 -8.549379 3.626272 0.000005 -12.539536 -6.151371 0.264674 1.231801 -0.060112 
-4.359217 16.132147 32.383163 1.459298 16.948747 -115.191769 -0.000001 0.009282 11.569108 8.869165 2.041624 0.866978 0.000000 -0.016861 9.269641 4.001553 0.921305 0.363809 0.000000 0.000001 8.374491 4.001555 0.921305 0.363813 -0.000000 0.000001 8.374492 3.001653 0.688632 0.278897 0.000001 0.000001 12.152561 21.206807 -1.233461 -1.839328 -0.000002 -0.040101 7.802314 3.183718 -1.723893 -3.724149 -2.894405 0.000000 6.791379 -8.113808 -6.370459 -5.370795 -13.574686 0.000001 -0.000003 35.017751 -37.125807 13.480153 -23.923904 -0.000005 -0.000004 61.246197 7.805428 64.546490 -19.846725 -0.012768 0.000004 -58.454480 34.937551 95.429538 2.894405 0.000000 6.791378 -7.434509 8.836833 -3.248604 13.574683 -0.000000 -0.000015 24.488841 36.494592 -4.413541 23.923897 0.000003 -0.000004 63.075171 3.285458 -68.582353 19.846706 -0.012770 -0.000000 -37.438056 -35.934199 -98.123488 -9.469266 -0.004642 0.045489 -43.712002 7.584299 -11.972803 -0.000044 -0.007561 -40.477196 146.093074 6.491115 0.977503 -0.000406 -0.049267 -35.223267 19.351929 -11.202175 8.873099 -0.000000 -12.539529 -6.151377 -0.066434 0.055931 -0.023942 9.469264 -0.004642 0.045489 -89.310720 3.560612 5.945196 -0.000088 -0.005750 -40.476025 98.422063 6.656131 1.918300 -0.000170 -0.049142 -35.223740 7.541038 -8.780735 3.617132 0.000003 -12.539533 -6.151380 0.265179 1.244372 -0.034232 
